<svg width="53" height="53" viewBox="0 0 53 53" fill="none" xmlns="http://www.w3.org/2000/svg">
<path d="M26.2295 0C40.7156 0 52.459 11.7433 52.459 26.2295C52.459 40.7157 40.7157 52.459 26.2295 52.459C11.7433 52.459 0 40.7156 0 26.2295C1.85546e-05 11.7434 11.7434 1.85558e-05 26.2295 0ZM33.1924 9.9834C30.4057 9.83007 22.0523 9.83007 19.2656 9.9834C16.5694 10.1076 14.1741 10.7062 12.1934 12.6191C10.2127 14.5321 9.60236 16.8544 9.4668 19.4756C9.30866 22.1775 9.30865 30.2739 9.4668 32.9756C9.59483 35.5968 10.2127 37.9191 12.1934 39.832C14.1741 41.745 16.5619 42.3441 19.2656 42.4756C22.0523 42.6289 30.4057 42.6289 33.1924 42.4756C35.8961 42.3514 38.2914 41.7523 40.2646 39.832C42.2378 37.919 42.8556 35.5968 42.9912 32.9756C43.1494 30.2738 43.1494 22.1839 42.9912 19.4824C42.8632 16.8612 42.2455 14.539 40.2646 12.626C38.2914 10.713 35.8961 10.1149 33.1924 9.9834ZM26.2324 12.8164C28.6878 12.8164 33.9683 12.6267 36.1826 13.4736C37.6586 14.0432 38.7957 15.1457 39.3906 16.584C40.2718 18.738 40.0684 23.8492 40.0684 26.2295C40.0684 28.6099 40.2718 33.7284 39.3906 35.875C38.8031 37.3058 37.6661 38.4086 36.1826 38.9854C33.9608 39.8396 28.6878 39.6426 26.2324 39.6426C23.7769 39.6426 18.4974 39.8323 16.2832 38.9854C14.8072 38.4159 13.6702 37.3131 13.0752 35.875C12.194 33.7211 12.3974 28.6099 12.3975 26.2295C12.3975 23.8492 12.2016 18.7307 13.0752 16.584C13.6626 15.153 14.7996 14.0505 16.2832 13.4736C18.5049 12.6194 23.7769 12.8164 26.2324 12.8164ZM26.2324 17.8398C21.4424 17.84 17.5791 21.5858 17.5791 26.2295C17.5793 30.873 21.4426 34.6189 26.2324 34.6191C31.0225 34.6191 34.8865 30.8731 34.8867 26.2295C34.8867 21.5857 31.0226 17.8398 26.2324 17.8398ZM26.2324 20.7744C29.3355 20.7744 31.8594 23.2212 31.8594 26.2295C31.8592 29.2376 29.3278 31.6836 26.2324 31.6836C23.1372 31.6834 20.6066 29.2375 20.6064 26.2295C20.6064 23.2214 23.1295 20.7746 26.2324 20.7744ZM35.2402 15.54C34.1259 15.5403 33.2229 16.4158 33.2227 17.4961C33.2227 18.5766 34.1182 19.4529 35.2402 19.4531C36.3549 19.4531 37.2588 18.584 37.2588 17.4961C37.2586 16.4156 36.3548 15.54 35.2402 15.54Z" fill="white"/>
</svg>
