<svg width="53" height="53" viewBox="0 0 53 53" fill="none" xmlns="http://www.w3.org/2000/svg">
<path d="M26.2295 0C40.7156 0 52.459 11.7433 52.459 26.2295C52.459 40.7157 40.7157 52.459 26.2295 52.459C11.7433 52.459 0 40.7156 0 26.2295C1.85546e-05 11.7434 11.7434 1.85558e-05 26.2295 0ZM12.9209 21.2666V41.0322H18.6279V21.2666H12.9209ZM33.1562 20.7705C30.3795 20.7705 28.5178 22.4099 27.7559 23.9629H27.6768V21.2666H22.2021V41.0322H27.9033V31.2451C27.9033 28.6679 28.3583 26.177 31.3252 26.1768C34.2494 26.1768 34.293 29.117 34.293 31.4102V41.0322H39.9941V30.1748C39.9941 24.8616 38.9321 20.7706 33.1562 20.7705ZM15.7715 11.4268C14.8949 11.4268 14.0534 11.8011 13.4336 12.4678C12.8138 13.1344 12.4658 14.0387 12.4658 14.9814C12.4658 16.9442 13.9465 18.5703 15.7715 18.5703C17.5956 18.57 19.0762 16.944 19.0762 14.9814C19.0762 14.0387 18.7282 13.1344 18.1084 12.4678C17.4887 11.8012 16.6479 11.4269 15.7715 11.4268Z" fill="white"/>
</svg>
