<svg width="62" height="48" viewBox="0 0 62 48" fill="none" xmlns="http://www.w3.org/2000/svg">
<path d="M48.05 21C40.3397 21 34.1 27.0384 34.1 34.5C34.1 41.9616 40.3397 48 48.05 48C55.7603 48 62 41.9616 62 34.5C62 27.0384 55.7603 21 48.05 21ZM54.25 35.0897C54.25 35.5903 53.8267 36 53.3093 36H47.4416C46.9243 36 46.501 35.5903 46.501 35.0897V27.9113C46.501 27.4106 46.9243 27.0009 47.4416 27.0009H48.6593C49.1767 27.0009 49.6 27.4106 49.6 27.9113V33H53.3093C53.8267 33 54.25 33.4097 54.25 33.9103V35.0897ZM48.05 18C48.5731 18 49.0885 18.0309 49.6 18.0759V13.5C49.6 11.1 47.43 9 44.95 9H37.2V4.5C37.2 2.1 35.03 0 32.55 0H17.05C14.57 0 12.4 2.1 12.4 4.5V9H4.65C2.17 9 0 11.1 0 13.5V21H38.2772C41.0479 19.1166 44.4143 18 48.05 18ZM31 9H18.6V6H31V9ZM31.6607 30H20.15C19.2936 30 18.6 29.3288 18.6 28.5V24H0V37.5C0 39.9 2.17 42 4.65 42H32.8823C31.6878 39.7463 31 37.2019 31 34.5C31 32.9381 31.2402 31.4325 31.6607 30Z" fill="#545454"/>
</svg>
