<svg width="46" height="48" viewBox="0 0 46 48" fill="none" xmlns="http://www.w3.org/2000/svg">
<path d="M44.85 0H37.2792C36.2537 0 35.7458 1.20938 36.4646 1.92188L38.0842 3.50625L30.3504 11.0719C28.2229 9.75937 25.7025 9 23 9C20.2975 9 17.7771 9.75937 15.6496 11.0719L14.0683 9.525L15.9658 7.66875C16.4163 7.22813 16.4163 6.51563 15.9658 6.075L13.2537 3.42188C12.8033 2.98125 12.075 2.98125 11.6246 3.42188L9.72708 5.27812L7.90625 3.49687L9.52583 1.9125C10.2638 1.20937 9.74625 0 8.72083 0H1.15C0.5175 0 0 0.50625 0 1.125V8.53125C0 9.53438 1.23625 10.0312 1.96458 9.32812L3.58417 7.74375L5.405 9.525L3.5075 11.3813C3.05708 11.8219 3.05708 12.5344 3.5075 12.975L6.21958 15.6281C6.67 16.0688 7.39833 16.0688 7.84875 15.6281L9.74625 13.7719L11.3275 15.3187C9.97625 17.3906 9.2 19.8563 9.2 22.5C9.2 28.9219 13.7904 34.3031 19.9333 35.6625V38.25H16.4833C15.8508 38.25 15.3333 38.7562 15.3333 39.375V43.125C15.3333 43.7438 15.8508 44.25 16.4833 44.25H19.9333V46.875C19.9333 47.4938 20.4508 48 21.0833 48H24.9167C25.5492 48 26.0667 47.4938 26.0667 46.875V44.25H29.5167C30.1492 44.25 30.6667 43.7438 30.6667 43.125V39.375C30.6667 38.7562 30.1492 38.25 29.5167 38.25H26.0667V35.6625C32.2096 34.2938 36.8 28.9219 36.8 22.5C36.8 19.8563 36.0238 17.3906 34.6821 15.3094L42.4158 7.74375L44.0354 9.32812C44.7637 10.0406 46 9.53438 46 8.53125V1.125C46 0.50625 45.4825 0 44.85 0ZM23 30C18.7738 30 15.3333 26.6344 15.3333 22.5C15.3333 18.3656 18.7738 15 23 15C27.2262 15 30.6667 18.3656 30.6667 22.5C30.6667 26.6344 27.2262 30 23 30Z" fill="#545454"/>
</svg>
