<svg width="49" height="49" viewBox="0 0 49 49" fill="none" xmlns="http://www.w3.org/2000/svg">
<path d="M10.9804 1.03076C14.2144 1.03076 16.8361 3.67115 16.8361 6.92819C16.8361 10.1852 14.2144 12.8256 10.9804 12.8256C7.7464 12.8256 5.12469 10.1852 5.12469 6.92819C5.12469 3.67115 7.7464 1.03076 10.9804 1.03076ZM21.8943 33.6674L17.5025 15.9751C17.3837 15.4967 17.1096 15.0719 16.7236 14.7684C16.3376 14.4649 15.8619 14.3 15.3722 14.3H14.3328C12.2549 15.2623 9.79554 15.3038 7.62801 14.3H6.58862C6.09891 14.3 5.62325 14.4649 5.23726 14.7684C4.85127 15.0719 4.5771 15.4967 4.45832 15.9751L0.0665288 33.6674C-0.279508 35.0613 0.767935 36.4154 2.19682 36.4154H7.32058V45.9987C7.32058 47.2201 8.3037 48.2102 9.51648 48.2102H12.4443C13.6571 48.2102 14.6402 47.2201 14.6402 45.9987V36.4154H19.764C21.1905 36.4154 22.2409 35.0635 21.8943 33.6674Z" fill="#545454"/>
<path d="M39.53 0C42.8594 0 45.5585 2.6981 45.5585 6.02634C45.5585 9.35457 42.8594 12.0527 39.53 12.0527C36.2006 12.0527 33.5015 9.35457 33.5015 6.02634C33.5015 2.6981 36.2006 0 39.53 0ZM44.0514 13.5593H42.9813C40.8421 14.5426 38.3102 14.5851 36.0787 13.5593H35.0087C32.5116 13.5593 30.4873 15.5828 30.4873 18.079V30.885C30.4873 32.1331 31.4994 33.1449 32.748 33.1449H34.2551V45.9508C34.2551 47.1989 35.2672 48.2107 36.5158 48.2107H42.5443C43.7928 48.2107 44.8049 47.1989 44.8049 45.9508V33.1449H46.3121C47.5606 33.1449 48.5727 32.1331 48.5727 30.885V18.079C48.5727 15.5828 46.5485 13.5593 44.0514 13.5593Z" fill="#545454"/>
</svg>
