<svg width="70" height="48" viewBox="0 0 70 48" fill="none" xmlns="http://www.w3.org/2000/svg">
<rect x="0.5" y="0.5" width="69" height="47" rx="5.5" fill="white" stroke="#D9D9D9"/>
<path d="M21.6555 10.0015H32.687C34.2269 10.0015 35.1847 11.2566 34.8255 12.8016L29.6895 34.8524C29.327 36.392 27.7853 37.6482 26.2443 37.6482H15.2138C13.676 37.6482 12.7161 36.392 13.0754 34.8524L18.2135 12.8016C18.5727 11.2566 20.1137 10.0015 21.6555 10.0015Z" fill="#E21836"/>
<path d="M31.7681 10H44.4541C45.9937 10 45.2995 11.2552 44.9373 12.8002L39.8021 34.8509C39.4418 36.3905 39.5542 37.6468 38.0113 37.6468H25.3253C23.7825 37.6468 22.8276 36.3905 23.1901 34.8509L28.325 12.8002C28.6896 11.2552 30.2274 10 31.7681 10Z" fill="#00447C"/>
<path d="M43.9511 10H54.9827C56.5248 10 57.4825 11.2552 57.1203 12.8002L51.9852 34.8509C51.6227 36.3905 50.0799 37.6468 48.5381 37.6468H37.5116C35.9688 37.6468 35.0118 36.3905 35.3732 34.8509L40.5092 12.8002C40.8684 11.2552 42.4083 10 43.9511 10Z" fill="#007B84"/>
<path d="M24.5356 17.0665C23.4012 17.0781 23.0661 17.0665 22.9591 17.0412C22.918 17.2367 22.1525 20.768 22.1503 20.771C21.9855 21.4854 21.8656 21.9946 21.4582 22.3235C21.227 22.5147 20.957 22.6069 20.644 22.6069C20.1409 22.6069 19.8478 22.3571 19.7986 21.8833L19.7892 21.7207C19.7892 21.7207 19.9425 20.7637 19.9425 20.7583C19.9425 20.7583 20.7459 17.5403 20.8898 17.1149C20.8973 17.0907 20.8995 17.0781 20.9013 17.0665C19.3375 17.0802 19.0603 17.0665 19.0412 17.0412C19.0307 17.0759 18.992 17.2754 18.992 17.2754L18.1716 20.9024L18.1012 21.21L17.9648 22.2162C17.9648 22.5147 18.0235 22.7583 18.1402 22.9642C18.5139 23.6174 19.58 23.7152 20.1831 23.7152C20.9602 23.7152 21.6892 23.5501 22.1818 23.2487C23.0368 22.7435 23.2605 21.9538 23.4601 21.252L23.5525 20.892C23.5525 20.892 24.3802 17.5497 24.5208 17.1149C24.5262 17.0907 24.5283 17.0781 24.5356 17.0665ZM27.3515 19.7627C27.152 19.7627 26.7874 19.8111 26.4599 19.9717C26.3411 20.0327 26.2287 20.1031 26.1101 20.1733L26.2171 19.7869L26.1585 19.7219C25.464 19.8625 25.3086 19.8813 24.667 19.9717L24.6132 20.0074C24.5387 20.6251 24.4726 21.0894 24.1964 22.3034C24.0913 22.7509 23.9821 23.2026 23.8727 23.6489L23.9023 23.7057C24.5597 23.671 24.7592 23.671 25.3306 23.6804L25.3769 23.6301C25.4495 23.2582 25.4589 23.1711 25.6197 22.418C25.6952 22.0609 25.8528 21.2763 25.9305 20.9969C26.0733 20.9308 26.2142 20.8657 26.3486 20.8657C26.6688 20.8657 26.6299 21.1451 26.6175 21.2564C26.6038 21.4433 26.4871 22.0536 26.3674 22.5777L26.2876 22.916C26.2319 23.1658 26.1709 23.4086 26.1152 23.6562L26.1394 23.7057C26.7874 23.671 26.9851 23.671 27.5384 23.6804L27.6035 23.6301C27.7035 23.0493 27.7328 22.8939 27.9103 22.0483L27.9996 21.6597C28.173 20.8993 28.2601 20.5137 28.1289 20.1997C27.9901 19.8477 27.6573 19.7627 27.3515 19.7627ZM30.4973 20.5589C30.1528 20.625 29.9332 20.6691 29.7148 20.6976C29.4984 20.7323 29.2873 20.7638 28.9544 20.81L28.9281 20.834L28.9039 20.853C28.8692 21.101 28.845 21.3153 28.799 21.5672C28.76 21.8278 28.7001 22.1238 28.6025 22.5492C28.5269 22.8748 28.4879 22.9883 28.4449 23.1028C28.4029 23.2174 28.3567 23.3287 28.2717 23.6489L28.2916 23.6785L28.3083 23.7056C28.6194 23.6909 28.8229 23.6804 29.0321 23.6785C29.2411 23.671 29.4575 23.6785 29.7925 23.6804L29.8218 23.6564L29.8533 23.6301C29.9017 23.3413 29.909 23.2636 29.9385 23.1227C29.9679 22.9716 30.0184 22.7624 30.1424 22.2037C30.201 21.9412 30.2663 21.6796 30.3271 21.4118C30.3903 21.1451 30.4564 20.8824 30.5193 20.6199L30.5099 20.5882L30.4973 20.5589ZM30.5046 19.4854C30.1916 19.3007 29.6423 19.3593 29.2726 19.6145C28.904 19.8646 28.862 20.2195 29.1739 20.4066C29.4815 20.5863 30.033 20.5327 30.3995 20.2754C30.7673 20.02 30.8133 19.6683 30.5046 19.4854ZM32.3974 23.7635C33.0307 23.7635 33.6798 23.589 34.1683 23.0712C34.5442 22.6512 34.7166 22.0263 34.7763 21.7689C34.9707 20.916 34.8193 20.5178 34.6292 20.2753C34.3404 19.9056 33.8301 19.787 33.3006 19.787C32.9823 19.787 32.224 19.8185 31.6317 20.3646C31.2063 20.7585 31.0097 21.293 30.8911 21.8055C30.7715 22.3277 30.6338 23.2677 31.4983 23.6175C31.765 23.7321 32.1495 23.7635 32.3974 23.7635ZM32.348 21.8445C32.494 21.1986 32.6663 20.6566 33.1062 20.6566C33.4509 20.6566 33.4759 21.0599 33.3227 21.7079C33.2953 21.8518 33.1694 22.3866 32.9992 22.6143C32.8804 22.7824 32.7397 22.8843 32.5843 22.8843C32.5381 22.8843 32.263 22.8843 32.2587 22.4758C32.2565 22.2742 32.2977 22.0682 32.348 21.8445ZM36.3592 23.6805L36.4087 23.6302C36.4789 23.2583 36.4904 23.1709 36.6458 22.4181C36.7235 22.061 36.8843 21.2764 36.9599 20.997C37.1029 20.9306 37.2414 20.8655 37.3802 20.8655C37.6982 20.8655 37.6595 21.1449 37.6469 21.2562C37.6353 21.4434 37.5186 22.0535 37.3968 22.5775L37.3213 22.9158C37.2635 23.1658 37.2005 23.4084 37.1449 23.6563L37.1691 23.7058C37.8192 23.6711 38.0093 23.6711 38.5659 23.6805L38.6332 23.6302C38.7308 23.0491 38.7571 22.8937 38.94 22.0483L39.0271 21.6595C39.2013 20.8991 39.2895 20.5138 39.1604 20.1998C39.0177 19.8478 38.6826 19.7628 38.3812 19.7628C38.1814 19.7628 37.8149 19.811 37.4893 19.9717C37.3729 20.0328 37.2562 20.103 37.1417 20.1734L37.2414 19.787L37.1879 19.7217C36.4936 19.8626 36.335 19.8814 35.6942 19.9717L35.645 20.0075C35.5673 20.6251 35.5041 21.0892 35.228 22.3035C35.1229 22.7509 35.0137 23.2027 34.9045 23.649L34.9338 23.7058C35.5923 23.6711 35.7889 23.6711 36.3592 23.6805ZM41.1361 23.7056C41.1769 23.5061 41.4198 22.3235 41.4219 22.3235C41.4219 22.3235 41.6287 21.4559 41.6413 21.4244C41.6413 21.4244 41.7064 21.3341 41.7715 21.2983H41.8672C42.7704 21.2983 43.7902 21.2983 44.5896 20.7102C45.1336 20.3069 45.5055 19.7113 45.6714 18.9875C45.7144 18.81 45.7461 18.599 45.7461 18.3879C45.7461 18.1107 45.6905 17.8364 45.5297 17.6221C45.122 17.0518 44.3103 17.0413 43.3732 17.037C43.3702 17.037 42.9113 17.0413 42.9113 17.0413C41.7118 17.0561 41.2307 17.0518 41.0331 17.0276C41.0164 17.115 40.985 17.2704 40.985 17.2704C40.985 17.2704 40.5553 19.2618 40.5553 19.265C40.5553 19.265 39.5271 23.4988 39.4787 23.6984C40.526 23.6857 40.9554 23.6857 41.1361 23.7056ZM41.9322 20.1682C41.9322 20.1682 42.3891 18.1808 42.3869 18.1884L42.4017 18.0865L42.4082 18.0087L42.5907 18.0276C42.5907 18.0276 43.5329 18.1085 43.555 18.1107C43.9268 18.2545 44.0801 18.6253 43.9731 19.1093C43.8755 19.5516 43.5886 19.9235 43.2199 20.1031C42.9164 20.2553 42.5445 20.2679 42.1613 20.2679H41.9134L41.9322 20.1682ZM44.7766 21.8813C44.6559 22.396 44.5171 23.336 45.3773 23.671C45.6516 23.7877 45.8973 23.8224 46.1471 23.8098C46.4109 23.7955 46.6553 23.6632 46.8817 23.4728C46.8613 23.5511 46.8409 23.6293 46.8204 23.7079L46.8594 23.7581C47.4781 23.7321 47.6701 23.7321 48.3404 23.7372L48.4012 23.6909C48.4991 23.1155 48.5913 22.5568 48.8457 21.4559C48.9696 20.9287 49.0933 20.4065 49.2205 19.8813L49.2006 19.8235C48.5085 19.9518 48.3235 19.9792 47.6577 20.0736L47.6072 20.1147C47.6005 20.1682 47.5935 20.2196 47.587 20.271C47.4835 20.1037 47.3335 19.9609 47.1019 19.8719C46.8059 19.7555 46.1106 19.9055 45.5128 20.4498C45.0928 20.8383 44.8912 21.3707 44.7766 21.8813ZM46.2302 21.9128C46.3784 21.2785 46.5486 20.7418 46.9895 20.7418C47.2684 20.7418 47.4152 20.9991 47.3853 21.4379C47.3617 21.5474 47.3361 21.6627 47.3058 21.7931C47.2617 21.9816 47.2138 22.1685 47.1673 22.3556C47.12 22.4836 47.0648 22.6043 47.0043 22.6847C46.8909 22.8455 46.6209 22.9453 46.4655 22.9453C46.4214 22.9453 46.1493 22.9453 46.1399 22.5441C46.1377 22.3443 46.1789 22.1386 46.2302 21.9128ZM53.821 19.8184L53.7675 19.7574C53.0826 19.8961 52.9587 19.9182 52.3295 20.0031L52.2832 20.0494C52.2811 20.0569 52.2792 20.0685 52.276 20.079L52.2738 20.0685C51.8054 21.1491 51.8191 20.916 51.4379 21.7667C51.4357 21.728 51.4357 21.7038 51.4335 21.6627L51.3381 19.8184L51.2781 19.7574C50.5607 19.8961 50.5438 19.9182 49.8813 20.0031L49.8296 20.0494C49.8224 20.0714 49.8224 20.0956 49.8181 20.122L49.8224 20.1314C49.9052 20.5546 49.8853 20.4602 49.9684 21.1281C50.0071 21.4559 50.0587 21.7856 50.0975 22.1093C50.1628 22.6511 50.1994 22.9178 50.2792 23.7447C49.8318 24.483 49.7259 24.7624 49.2951 25.4104L49.2981 25.4169L48.9948 25.8965C48.9601 25.9471 48.9286 25.9818 48.8845 25.9966C48.8361 26.0205 48.7732 26.0248 48.6858 26.0248H48.5178L48.268 26.8557L49.1249 26.8705C49.628 26.8683 49.9442 26.633 50.1144 26.3168L50.6532 25.3935H50.6446L50.7014 25.3284C51.0638 24.5481 53.821 19.8184 53.821 19.8184ZM44.7766 30.7304H44.4131L45.7586 26.2801H46.2049L46.3466 25.8217L46.3603 26.3315C46.3437 26.6466 46.5916 26.926 47.2428 26.8797H47.996L48.2552 26.0228H47.9718C47.8088 26.0228 47.7333 25.9817 47.7427 25.8935L47.729 25.3748H46.3342V25.3775C45.8833 25.3869 44.5368 25.4208 44.2641 25.4934C43.9342 25.5783 43.5865 25.8284 43.5865 25.8284L43.7231 25.3694H42.4185L42.1466 26.2801L40.7831 30.7985H40.5185L40.2591 31.6492H42.8576L42.7704 31.9329H44.0509L44.1358 31.6492H44.4951L44.7766 30.7304ZM43.7105 27.1844C43.5015 27.2422 43.1127 27.4175 43.1127 27.4175L43.4585 26.2801H44.4951L44.245 27.1088C44.245 27.1088 43.9248 27.1276 43.7105 27.1844ZM43.7304 28.8092C43.7304 28.8092 43.4047 28.8501 43.1904 28.8985C42.9794 28.9625 42.5836 29.1642 42.5836 29.1642L42.9406 27.9805H43.9826L43.7304 28.8092ZM43.1496 30.7409H42.1098L42.4112 29.742H43.4478L43.1496 30.7409ZM45.6536 27.9805H47.1524L46.937 28.678H45.4183L45.1903 29.4406H46.5191L45.513 30.8573C45.4425 30.9614 45.3793 30.9982 45.3091 31.0275C45.2387 31.0633 45.1462 31.1053 45.0392 31.1053H44.6705L44.4173 31.9404H45.3815C45.8827 31.9404 46.1787 31.7124 46.3973 31.4131L47.0873 30.4688L47.2354 31.4277C47.2669 31.6073 47.396 31.7124 47.4834 31.7533C47.5799 31.8017 47.6796 31.8848 47.8205 31.8971C47.9717 31.9036 48.0808 31.9087 48.1534 31.9087H48.6272L48.9117 30.974H48.7248C48.6175 30.974 48.4328 30.956 48.4013 30.9224C48.3699 30.8815 48.3699 30.8186 48.3529 30.7229L48.2026 29.7619H47.5871L47.8571 29.4406H49.3728L49.6059 28.678H48.2026L48.4212 27.9805H49.8202L50.0797 27.1204H45.9088L45.6536 27.9805ZM32.995 30.9351L33.3448 29.7714H34.7825L35.0452 28.9059H33.6061L33.8258 28.1895H35.2321L35.4926 27.3514H31.974L31.7188 28.1895H32.5182L32.305 28.9059H31.5035L31.2378 29.7862H32.0369L31.5707 31.3258C31.5078 31.5296 31.6003 31.6073 31.6589 31.702C31.7188 31.7942 31.7796 31.8553 31.9162 31.8899C32.0571 31.9214 32.1536 31.9402 32.2848 31.9402H33.9057L34.1945 30.9814L33.476 31.0801C33.3373 31.0801 32.953 31.0634 32.995 30.9351ZM33.1599 25.3642L32.7955 26.0227C32.7176 26.1665 32.6474 26.2558 32.5842 26.2969C32.5285 26.3316 32.4183 26.3461 32.2586 26.3461H32.0685L31.8144 27.1885H32.4457C32.7493 27.1885 32.9824 27.0772 33.0937 27.0216C33.2134 26.9576 33.2448 26.9941 33.3373 26.9049L33.5506 26.7201H35.522L35.7836 25.843H34.3405L34.5925 25.3642H33.1599ZM36.0704 30.952C36.0368 30.9036 36.061 30.8184 36.1123 30.6409L36.6512 28.8574H38.5681C38.8474 28.8534 39.0491 28.8502 39.1803 28.8408C39.3212 28.826 39.4745 28.7757 39.6415 28.6853C39.8138 28.5907 39.902 28.4909 39.9765 28.3764C40.0596 28.2621 40.1929 28.0121 40.3075 27.6265L40.9848 25.3695L38.9956 25.381C38.9956 25.381 38.3831 25.4714 38.1134 25.5711C37.8413 25.6824 37.4525 25.9933 37.4525 25.9933L37.6321 25.3746H36.4033L34.6829 31.08C34.6219 31.3016 34.581 31.4624 34.5716 31.5589C34.5684 31.663 34.7028 31.766 34.79 31.8437C34.8929 31.9214 35.0451 31.9087 35.1911 31.9214C35.3447 31.9329 35.563 31.9402 35.8644 31.9402H36.8087L37.0986 30.9615L36.2532 31.0413C36.1629 31.0413 36.0975 30.9929 36.0704 30.952ZM36.9989 27.6528H39.0123L38.8843 28.054C38.8663 28.0634 38.8232 28.0341 38.6183 28.0583H36.8749L36.9989 27.6528ZM37.4022 26.3073H39.4325L39.2865 26.7905C39.2865 26.7905 38.3296 26.7811 38.1763 26.8093C37.5019 26.926 37.108 27.2863 37.108 27.2863L37.4022 26.3073ZM38.9293 29.3974C38.9127 29.4574 38.8863 29.494 38.8495 29.5214C38.8086 29.5477 38.7425 29.5572 38.6438 29.5572H38.3569L38.3738 29.0686H37.1805L37.1321 31.4571C37.1302 31.6294 37.1469 31.7292 37.273 31.8091C37.3991 31.9088 37.7877 31.9215 38.3106 31.9215H39.0584L39.3284 31.0274L38.6774 31.0632L38.4609 31.0758C38.4314 31.0632 38.4031 31.0516 38.3717 31.0202C38.3442 30.993 38.298 31.0097 38.3055 30.8373L38.3106 30.2251L38.9933 30.1968C39.362 30.1968 39.5195 30.0769 39.654 29.9626C39.7822 29.8532 39.8242 29.7274 39.8726 29.5572L39.9871 29.0151H39.049L38.9293 29.3974Z" fill="#FEFEFE"/>
</svg>
