<svg width="53" height="53" viewBox="0 0 53 53" fill="none" xmlns="http://www.w3.org/2000/svg">
<path d="M26.2295 0C40.7156 0 52.459 11.7433 52.459 26.2295C52.459 40.7157 40.7157 52.459 26.2295 52.459C11.7433 52.459 0 40.7156 0 26.2295C1.85546e-05 11.7434 11.7434 1.85558e-05 26.2295 0ZM26.2227 10.3877C17.8502 10.3877 11.0371 17.5475 11.0371 26.3457C11.0371 29.1561 11.7346 31.902 13.0615 34.3242L10.9072 42.5908L18.958 40.3691C21.1743 41.6414 23.6712 42.3105 26.2158 42.3105H26.2227C34.5883 42.3105 41.5518 35.1507 41.5518 26.3525C41.5517 22.0901 39.8279 18.0863 36.9619 15.0674C34.0959 12.0484 30.2789 10.3877 26.2227 10.3877ZM26.2295 13.083C29.6017 13.083 32.769 14.464 35.1494 16.9727C37.5296 19.4812 38.9931 22.809 38.9863 26.3525C38.9863 33.67 33.1792 39.622 26.2227 39.6221C23.9517 39.6221 21.7287 38.982 19.793 37.7744L19.334 37.4873L14.5596 38.8027L15.832 33.9072L15.5312 33.4043C14.2658 31.2911 13.6026 28.8543 13.6025 26.3457C13.6025 19.0354 19.2661 13.083 26.2295 13.083ZM20.8389 18.9854C20.5858 18.9855 20.1757 19.0856 19.8271 19.4805C19.4783 19.883 18.5001 20.8465 18.5 22.8086C18.5 24.7705 19.8607 26.6679 20.0459 26.9346C20.2374 27.2005 22.7204 31.2256 26.5303 32.958C28.9379 34.0505 29.8821 34.1449 31.0859 33.958C31.8178 33.843 33.3299 32.994 33.6445 32.0596C33.959 31.1253 33.959 30.3274 33.8633 30.1621C33.7743 29.9825 33.5206 29.8815 33.1445 29.6875C32.7673 29.4857 30.9023 28.5244 30.5527 28.3945C30.2039 28.258 29.9504 28.1932 29.6973 28.5957C29.444 28.9984 28.7188 29.889 28.4932 30.1621C28.2743 30.428 28.049 30.4639 27.6729 30.2627C25.4429 29.091 23.9794 28.1709 22.5088 25.5186C22.1189 24.8142 22.898 24.8646 23.623 23.3408C23.7462 23.0749 23.6846 22.8448 23.5889 22.6436C23.4928 22.4415 22.7335 20.4793 22.4189 19.6816C22.1112 18.906 21.797 19.0134 21.5645 18.999C21.3456 18.9846 21.092 18.9854 20.8389 18.9854Z" fill="white"/>
</svg>
